<?xml version="1.0" standalone="no"?>
<!DOCTYPE svg PUBLIC "-//W3C//DTD SVG 20010904//EN"
 "http://www.w3.org/TR/2001/REC-SVG-20010904/DTD/svg10.dtd">
<svg version="1.0" xmlns="http://www.w3.org/2000/svg"
 width="1024.000000pt" height="1024.000000pt" viewBox="0 0 1024.000000 1024.000000"
 preserveAspectRatio="xMidYMid meet">
<metadata>
Created by potrace 1.14, written by Peter Selinger 2001-2017
</metadata>
<g transform="translate(0.000000,1024.000000) scale(0.100000,-0.100000)"
fill="#000000" stroke="none">
<path d="M920 6846 c0 -8 -25 -106 -56 -218 -30 -111 -57 -212 -59 -223 -5
-22 -75 -285 -100 -375 -37 -132 -187 -697 -191 -720 -3 -14 -9 -38 -15 -55
-8 -26 -30 -109 -146 -545 -13 -52 -40 -153 -59 -225 -19 -71 -37 -137 -39
-145 -2 -8 -20 -76 -40 -150 -20 -74 -38 -142 -40 -150 -2 -8 -13 -51 -25 -95
-11 -44 -44 -165 -71 -270 -28 -104 -54 -201 -59 -215 -5 -14 -11 -37 -14 -53
l-6 -27 4656 2 4657 3 14 40 c7 22 16 52 18 67 3 15 9 38 15 52 5 15 7 26 5
26 -2 0 0 12 6 28 6 15 13 41 16 57 3 17 11 48 18 70 14 42 35 117 41 149 2
10 11 44 20 75 9 31 17 63 19 71 2 8 9 35 16 60 20 71 26 96 35 139 3 13 9 32
15 43 5 10 8 18 5 18 -3 0 0 15 5 33 16 52 37 128 44 164 3 12 10 34 15 48 5
14 8 25 5 25 -2 0 2 19 11 41 8 23 16 52 19 65 3 13 7 36 10 51 3 14 10 34 16
45 5 10 7 18 5 18 -3 0 -1 11 4 25 5 14 12 36 14 48 6 31 51 202 69 260 8 26
13 47 11 47 -2 0 3 18 11 40 8 22 12 40 10 40 -3 0 0 12 6 28 10 25 13 36 23
80 2 9 10 37 17 62 20 71 26 96 35 139 3 13 9 32 15 43 5 10 7 18 5 18 -3 0
-1 11 4 26 6 14 12 39 15 57 4 18 12 51 20 74 8 23 17 54 19 68 3 14 12 52 21
83 10 31 18 64 20 72 2 8 10 42 19 75 9 33 18 67 20 75 2 8 11 42 20 75 21 75
25 91 30 113 6 26 75 284 103 387 14 50 26 97 28 105 2 8 5 22 7 30 3 13 -520
15 -4654 18 -3990 2 -4658 0 -4658 -12z"/>
</g>
</svg>
